#!OML:ASF F:\VICON\USERDATA\INSTALL\rory3\rory3.ASF
:FULLY-SPECIFIED
:DEGREES
51
root 0.48584918709887 17.38329280749386 19.79018503963907 3.535172522636513 -5.670588739501447 -6.856900357055855
lfemur -36.02375123630892 10.381859240478708 -8.520374301853396
ltibia 108.69262432117515
lfoot 3.9477941913495878 -10.990999575081013
ltoes -9.916361794929713
rfemur -8.590591693969866 5.697454496146677 36.50330371039992
rtibia 47.71544151679133
rfoot -17.97579007740186 -13.308291751400603
rtoes -10.092712440191278
lowerback nan 1.4825624356759168 6.036508844450715
upperback -0.20956870839252428 3.321440239984557 3.3919269843546918
thorax -9.520773125953072 1.375565479616184 -1.3644939416342332
lowerneck -20.484611625971144 -3.8687951811330725 -2.1640085455187705
upperneck 7.478529052087953 -5.082398572136835 3.552551876206279
head 5.625920203421846 -2.307568815835012 0.8922013236532078
lclavicle -3.949626734555376e-15 -6.858870506096923e-15
lhumerus -52.62265788828102 -7.971634855908202 93.84041780686069
lradius 105.19075260477196
lwrist 32.62100563009364
lhand -24.49996990649469 4.292708992056447
lfingers nan
lthumb 1.7524436988914127 33.72642291774259
rclavicle -3.9085607994588205e-15 -6.5964380201071596e-15
rhumerus -46.01844717129477 8.857879221908727 -96.18941503352767
rradius 111.3513605917427
rwrist -22.38621477018432
rhand -18.39584280116844 nan
rfingers nan
rthumb 8.825799764372267 7.057999816568364
52
root 0.5498734833700417 17.588951001111866 21.266556638813157 3.7910377011903127 -4.19467584079468 -6.980271556929735
lfemur -38.50271444012316 8.545741147799228 -9.988090709297275
ltibia 105.36304579539126
lfoot 2.5231651340629524 -9.534676837865778
ltoes -11.008831140352452
rfemur -4.973216162860114 4.525390047822237 36.34573738575012
rtibia 45.47870369436018
rfoot -15.313627185863034 -12.477681682790234
rtoes -12.258889762518562
lowerback nan 1.6601224550509919 6.615783006052262
upperback -0.4492875836487945 3.6024499066659796 3.230108121396081
thorax -9.513514870099446 1.460918503831754 -1.8929182612136475
lowerneck -20.30773151006286 -4.103216731168458 -2.1746427508053503
upperneck 7.429510476099697 -5.436808755223319 3.5937479627586773
head 5.622803698875138 -2.482062140659182 0.8775480864441044
lclavicle -3.705254274729881e-15 -5.7155790566710676e-15
lhumerus -54.126866792512175 -7.61094459632856 93.95436055331767
lradius 105.86677812724878
lwrist 33.00975291042718
lhand -24.335545616713066 4.216982654772275
lfingers nan
lthumb 1.813196183375259 33.931631026570436
rclavicle -3.4525699289837184e-15 -5.267451631605328e-15
rhumerus -44.37078383413781 9.978418212965767 -96.127558790309
rradius 112.59585307079372
rwrist -22.598357317957028
rhand -18.237801497752113 nan
rfingers nan
rthumb 8.700738832534915 6.952676516272588
53
root 0.6190665975128571 17.81506325347647 21.818256496328896 3.7386346302801705 -2.685294781521879 -6.563499287157297
lfemur -39.80806750664959 6.049334133058715 -11.827298750987355
ltibia 99.23793461522095
lfoot 1.7530907277424013 -7.905446109428471
ltoes -11.900071631929555
rfemur -1.14865297421483 3.3313056282599094 35.32481482110937
rtibia 42.085332989408684
rfoot -10.416364306391742 -10.488088727998798
rtoes -12.850111511692853
lowerback nan 1.767073835588254 6.699542557879614
upperback -0.6958198620971263 3.7325574088793454 2.8819027641927217
thorax -9.444436923963716 1.4969759210283062 -2.311359745233488
lowerneck -19.984531346421427 -4.35017700720369 -2.183424732294636
upperneck 7.543671005452219 -5.804901155569768 3.6195174147335996
head 5.64262877198013 -2.665006328346151 0.8579203423930457
lclavicle -2.3942615478401202e-15 -3.903894948856784e-15
lhumerus -55.364582068172275 -7.237026359038115 93.89440886838184
lradius 106.41901296844873
lwrist 33.250142799821454
lhand -23.975640696228908 3.506159215222359
lfingers nan
lthumb 1.770996037464621 32.97846234006513
rclavicle -2.1398732401837573e-15 -3.3875256507867693e-15
rhumerus -43.03081135491409 10.993447053329243 -95.9835663735345
rradius 114.15458250975652
rwrist -22.631513342184483
rhand -18.01206406736889 nan
rfingers nan
rthumb 9.030287318952073 7.635797178225383
54
root 0.6689887620818565 18.02236427567125 22.431940129207014 3.7169328129937074 -1.2202855455319361 -5.93187641247599
lfemur -40.398161839239776 3.4442399218836077 -13.570029894294185
ltibia 91.32430606860135
lfoot 1.4524009665998556 -6.872086716032619
ltoes -13.21461489660035
rfemur 2.2915146090033804 2.411410004762377 33.87818634741442
rtibia 37.96910324882834
rfoot -2.9024892356965966 -7.513362701296849
rtoes -10.50277278793552
lowerback nan 1.8991401091966487 6.581655092284056
upperback -0.9030112300259381 3.821640083918113 2.5045275233625333
thorax -9.248539066814745 1.5174158122777641 -2.6728187403416594
lowerneck -19.557883099577037 -4.6479349653797035 -2.19676548284567
upperneck 7.8212648417199055 -6.242891141102135 3.6431660088173032
head 5.703805224783832 -2.8856000138299702 0.8330865866949461
lclavicle -2.643245330899967e-15 -4.282123220631844e-15
lhumerus -56.422315949974184 -6.94575882718875 93.66291570048175
lradius 106.80650534091053
lwrist 33.38584168277697
lhand -23.736197208631417 3.0893563038481497
lfingers nan
lthumb 2.2109498775448055 32.9865389804237
rclavicle -2.5405299193075863e-15 -4.00667538475094e-15
rhumerus -42.03295959729401 11.893301382548994 -95.80329807313602
rradius 115.87069722384544
rwrist -22.68901168214681
rhand -17.98154602206757 nan
rfingers nan
rthumb 8.993236408370784 8.071665836453715
55
root 0.7359907720827141 18.229095266113386 23.01243588372355 3.564037105321513 0.15348167072093655 -5.3877524501389225
lfemur -40.21995429393479 1.0827542376936838 -15.00736753982163
ltibia 82.63010269857766
lfoot 1.529709429756223 -6.962330733238542
ltoes -15.203246939296076
rfemur 5.515782652402345 1.9595122919321473 32.65650701459412
rtibia 33.677455990488184
rfoot 6.727906281228567 -4.594869687902201
rtoes -4.155784966077819
lowerback nan 1.9889814446585259 6.516189565799017
upperback -1.1470396340861266 3.8671347236031766 2.1336870440107587
thorax -8.953792927728184 1.5285651319446116 -3.0028404722647433
lowerneck -18.94824072417568 -4.91234465104476 -2.2132008490205517
upperneck 8.166894139303729 -6.6436667705185055 3.6817472951885923
head 5.779569898709004 -3.0880476421141654 0.8164027631700136
lclavicle -6.960657975870167e-16 -2.4349592821438823e-15
lhumerus -57.25712768542779 -6.552271030514868 93.31023888084879
lradius 107.0386859598851
lwrist 33.40644753466579
lhand -23.701478409364803 2.4717967329585346
lfingers nan
lthumb 2.2496197400951043 32.34882525733592
rclavicle -9.222065648742764e-16 -2.208546619840268e-15
rhumerus -41.343115347225094 12.718084992163302 -95.64655015244061
rradius 117.53414180786444
rwrist -22.715031382623092
rhand -17.714064018678755 nan
rfingers nan
rthumb 9.273302042997901 9.078340723444605
56
root 0.7977572292018811 18.42167854088505 24.292177065919287 3.560992013554675 1.4445323673380792 -4.916642574272702
lfemur -39.13659493107972 -0.8033674490984425 -16.086594475428335
ltibia 73.05381049661821
lfoot 1.6366493428385267 -8.48983721888417
ltoes -17.463175482088182
rfemur 8.589140209988996 2.1665992092198962 31.96601369424732
rtibia 30.18266388336494
rfoot 16.676602073970123 -3.05683746717051
rtoes 3.7063902010606857
lowerback nan 2.0917529449115544 6.4397142100265805
upperback -1.4462460124900294 3.92736103234506 1.794147447335956
thorax -8.801718091399641 1.5526799754366594 -3.2954583621550686
lowerneck -18.49814392891983 -5.182774170179227 -2.276933893767409
upperneck 8.616845876175262 -7.071520980766525 3.771048683737579
head 5.8978583997943215 -3.297746387710106 0.8181326918263733
lclavicle -3.649861029623312e-16 -2.2639210641580217e-15
lhumerus -57.97054486383809 -6.178471256157062 92.8614989834984
lradius 107.23367356626522
lwrist 33.470483400287605
lhand -23.666670932060974 2.186929750831929
lfingers nan
lthumb 2.473035029172737 32.22202406874998
rclavicle -7.080651117964091e-16 -2.0951795026813165e-15
rhumerus -40.97604255533437 13.46748512129694 -95.52122541614237
rradius 119.04901428279013
rwrist -22.605011312372053
rhand -17.66717298439406 nan
rfingers nan
rthumb 8.9015557777732 9.343980563873052
57
root 0.8295631274489692 18.53936235237513 24.843956084385628 3.6228005795742138 2.271068882905402 -4.987712708964089
lfemur -37.839561851986915 -1.8114831225008121 -16.40766092508666
ltibia 62.82045272408279
lfoot 2.5572024500307298 -11.054229045264988
ltoes -19.296901837280704
rfemur 10.51599875578257 3.2111766634266106 32.44592275853279
rtibia 28.57717957302192
rfoot 23.58412135669881 -3.3097246900428927
rtoes 8.498570118980435
lowerback nan 2.202753828921165 6.656444295270524
upperback -1.7100311442360816 4.052342757502224 1.5821732850649393
thorax -8.633128802640321 1.6061439252299048 -3.5037141797178144
lowerneck -18.20884197620119 -5.429507997149038 -2.3517525976954117
upperneck 9.043802570131549 -7.443397529950543 3.8933466993441805
head 6.026054111968863 -3.469404880301367 0.8386434030475847
lclavicle 1.2666195023318696e-15 -1.8600465225824393e-15
lhumerus -58.47601258480599 -5.818813975665783 92.40089993485698
lradius 107.46091151169543
lwrist 33.63221107206661
lhand -23.80217930006502 1.7890391157758931
lfingers nan
lthumb 2.3328839903492806 31.75374441637089
rclavicle 4.47006117052268e-16 -2.015806448582487e-15
rhumerus -40.84945469216659 14.172729671559832 -95.43212380403791
rradius 120.29129600862072
rwrist -22.398343426993428
rhand -17.50054333075029 nan
rfingers nan
rthumb 8.871374062214603 9.939768048834656
58
root 0.8478250322229705 18.60719338156466 25.04218347947467 3.676119438278552 2.523080572791067 -5.13331645793085
lfemur -36.34872136154676 -2.2171076001151158 -16.5583563163546
ltibia 52.65823990709692
lfoot 4.465544511864531 -14.027354696126217
ltoes -20.0388426034783
rfemur 11.693689088116544 4.749619304691154 33.29586470199479
rtibia 29.28122849107134
rfoot 26.35911686168536 -4.0732404065945325
rtoes 10.553508742065677
lowerback nan 2.3318873713496573 6.766621010444767
upperback -1.865080975161392 4.173521047547386 1.4645507524700498
thorax -8.478118872721316 1.6788793227557512 -3.541461739129081
lowerneck -18.074185721373343 -5.569327056074425 -2.406649470430602
upperneck 9.309387893241166 -7.664845491918555 4.000524987983499
head 6.122179227012954 -3.562522200517505 0.8649165141759239
lclavicle 1.9054577945422844e-15 -2.1674793377040846e-15
lhumerus -58.858592415678004 -5.5361954584817425 91.97703847376314
lradius 107.86898928260572
lwrist 33.719768980570386
lhand -23.896567854312245 1.645858576356833
lfingers nan
lthumb 2.401766912232543 31.750778937928306
rclavicle 1.0187706694712418e-15 -2.412153424282963e-15
rhumerus -41.02137601359817 14.793978661308 -95.44781465117883
rradius 121.27310485903948
rwrist -22.155883115608923
rhand -17.444723244860644 nan
rfingers nan
rthumb 8.392387736300336 9.881950118029403
